<?xml version="1.0" encoding="utf-8"?>
<!-- Generator: Adobe Illustrator 27.7.0, SVG Export Plug-In . SVG Version: 6.00 Build 0)  -->
<svg version="1.1" id="Layer_1" xmlns="http://www.w3.org/2000/svg" xmlns:xlink="http://www.w3.org/1999/xlink" x="0px" y="0px"
	 viewBox="0 0 1699 217" style="enable-background:new 0 0 1699 217;" xml:space="preserve">
<style type="text/css">
	.st0{fill:#FFFFFF;filter:url(#Adobe_OpacityMaskFilter);}
	.st1{fill:#FFFFFF;}
	.st2{fill-rule:evenodd;clip-rule:evenodd;fill:#FFFFFF;}
	.st3{mask:url(#mask0_1_2_00000090999238455771665900000016627285399711127485_);}
	.st4{fill:url(#SVGID_1_);}
</style>
<defs>
	<filter id="Adobe_OpacityMaskFilter" filterUnits="userSpaceOnUse" x="-82.92" y="-87.35" width="1901.03" height="400.78">
		<feColorMatrix  type="matrix" values="1 0 0 0 0  0 1 0 0 0  0 0 1 0 0  0 0 0 1 0"/>
	</filter>
</defs>
<mask maskUnits="userSpaceOnUse" x="-82.92" y="-87.35" width="1901.03" height="400.78" id="mask0_1_2_00000090999238455771665900000016627285399711127485_">
	<rect x="1604.33" y="121.93" class="st0" width="21.85" height="21.85"/>
	<rect x="1604.33" y="165.43" class="st1" width="21.85" height="21.85"/>
	<rect x="1668.91" y="186.71" class="st1" width="21.85" height="21.85"/>
	<rect x="1626.17" y="186.71" class="st1" width="21.85" height="21.85"/>
	<rect x="1582.67" y="186.71" class="st1" width="21.85" height="21.85"/>
	<rect x="1582.67" y="100.47" class="st1" width="21.85" height="21.85"/>
	<rect x="1539.55" y="100.47" class="st1" width="21.85" height="21.85"/>
	<rect x="1496.43" y="100.47" class="st1" width="21.85" height="21.85"/>
	<rect x="1582.67" y="57.54" class="st1" width="21.85" height="21.85"/>
	<rect x="1582.67" y="14.23" class="st1" width="21.85" height="21.85"/>
	<rect x="1582.67" y="143.78" class="st1" width="21.85" height="21.85"/>
	<rect x="1647.45" y="121.93" class="st1" width="21.85" height="21.85"/>
	<rect x="1668.91" y="100.47" class="st1" width="21.85" height="21.85"/>
	<rect x="1647.45" y="165.24" class="st1" width="21.85" height="21.85"/>
	<rect x="1668.91" y="143.78" class="st1" width="21.85" height="21.85"/>
	<rect x="1625.79" y="100.47" class="st1" width="21.85" height="21.85"/>
	<rect x="1625.98" y="143.59" class="st1" width="21.85" height="21.85"/>
	<path class="st2" d="M1510.78,14.23c-7.82,0-14.15,6.34-14.15,14.15v36.86c0,7.82,6.34,14.15,14.15,14.15h36.66
		c7.82,0,14.15-6.34,14.15-14.15V28.38c0-7.82-6.34-14.15-14.15-14.15H1510.78z M1540.03,35.98h-21.85v21.85h21.85V35.98z"/>
	<path class="st2" d="M1510.78,143.4c-7.82,0-14.15,6.34-14.15,14.15v36.86c0,7.82,6.34,14.15,14.15,14.15h36.66
		c7.82,0,14.15-6.34,14.15-14.15v-36.86c0-7.82-6.34-14.15-14.15-14.15H1510.78z M1540.03,165.53h-21.85v21.85h21.85V165.53z"/>
	<path class="st2" d="M1639.94,14.23c-7.82,0-14.15,6.34-14.15,14.15v36.86c0,7.82,6.33,14.15,14.15,14.15h36.66
		c7.82,0,14.15-6.34,14.15-14.15V28.38c0-7.82-6.34-14.15-14.15-14.15H1639.94z M1669.34,35.98h-21.85v21.85h21.85V35.98z"/>
	<path class="st1" d="M13.36,208.44h96.78c58.89,0,91.45-35.01,91.45-98.42c0-63.41-35.51-98.7-94.41-98.7H13.36V208.44z
		 M66.63,51.84h35.22c33.15,0,46.46,22.33,46.46,58.17s-13.32,57.9-46.46,57.9H66.63V51.84z"/>
	<path class="st1" d="M318.21,212.85c66.59,0,104.77-43.56,104.77-103.11C422.98,50.46,384.8,6.9,318.21,6.9
		c-67.18,0-104.77,43.56-104.77,102.84C213.45,169.29,251.03,212.85,318.21,212.85z M318.21,172.32
		c-38.77,0-51.49-28.12-51.49-62.58c0-34.19,12.73-62.31,51.49-62.31c38.47,0,51.49,28.12,51.49,62.31
		C369.71,144.2,356.68,172.32,318.21,172.32z"/>
	<path class="st1" d="M539.6,212.85c66.59,0,104.77-43.56,104.77-103.11C644.36,50.46,606.19,6.9,539.6,6.9
		c-67.18,0-104.77,43.56-104.77,102.84C434.83,169.29,472.42,212.85,539.6,212.85z M539.6,172.32c-38.77,0-51.49-28.12-51.49-62.58
		c0-34.19,12.73-62.31,51.49-62.31c38.48,0,51.5,28.12,51.5,62.31C591.09,144.2,578.07,172.32,539.6,172.32z"/>
	<path class="st1" d="M664.8,208.44h53.27v-68.65h33.15c45.28,0,26.04,60.38,36.4,68.65h55.34v-2.76
		c-12.13-3.31,7.1-79.68-45.87-88.22v-0.55C823.43,111.39,840,94.85,840,68.66c0-37.22-28.41-57.35-75.47-57.35H664.8V208.44z
		 M718.07,51.84h36.11c21.31,0,32.55,7.17,32.55,23.71c0,16.54-11.25,23.71-32.55,23.71h-36.11V51.84z"/>
	<path class="st1" d="M867.72,14.16v194.48h143.17v-39.98h-91.42V14.16H867.72z"/>
	<path class="st1" d="M1191.25,87.96c-25.83-6.77-38.74-10.57-38.74-22.49c0-10.84,12.05-15.45,27.55-15.45
		c19.8,0,33,8.67,35.3,23.3H1267c-1.44-39.29-39.03-63.14-86.95-63.14c-44.19,0-79.2,16.53-79.2,58.8
		c0,35.77,30.99,50.13,66.29,59.88c28.98,8.13,51.08,11.65,51.08,27.1c0,9.76-10.33,16.8-29.56,16.8c-22.96,0-41.9-7.59-41.9-28.18
		h-51.65c0,43.08,40.17,68.01,93.55,68.01c51.37,0,81.21-24.12,81.21-61.24C1269.88,109.9,1229.99,97.98,1191.25,87.96z"/>
	<path class="st1" d="M1342.13,208.63h51.59V54.14h59.33V14.16h-170.54v39.98h59.62V208.63z"/>
	<path class="st1" d="M1027.74,14.16v194.48h50.53V14.16H1027.74z"/>
</mask>
<g class="st3">
	
		<linearGradient id="SVGID_1_" gradientUnits="userSpaceOnUse" x1="339.6181" y1="615.0419" x2="186.1785" y2="-63.3002" gradientTransform="matrix(1 0 0 -1 604 392)">
		<stop  offset="0" style="stop-color:#548FBA"/>
		<stop  offset="1" style="stop-color:#323278"/>
	</linearGradient>
	<path class="st4" d="M-82.92-87.35h1901.03v400.78H-82.92V-87.35z"/>
</g>
</svg>
