<?xml version="1.0" encoding="utf-8"?>
<!-- Generator: Adobe Illustrator 27.7.0, SVG Export Plug-In . SVG Version: 6.00 Build 0)  -->
<svg version="1.1" id="Layer_1" xmlns="http://www.w3.org/2000/svg" xmlns:xlink="http://www.w3.org/1999/xlink" x="0px" y="0px"
	 viewBox="0 0 1643 217" style="enable-background:new 0 0 1643 217;" xml:space="preserve">
<style type="text/css">
	.st0{fill:#FFFFFF;}
	.st1{fill-rule:evenodd;clip-rule:evenodd;fill:#FFFFFF;}
</style>
<rect x="1550.22" y="124.97" class="st0" width="21.08" height="21.08"/>
<rect x="1550.22" y="166.94" class="st0" width="21.08" height="21.08"/>
<rect x="1612.52" y="187.46" class="st0" width="21.08" height="21.08"/>
<rect x="1571.3" y="187.46" class="st0" width="21.08" height="21.08"/>
<rect x="1529.33" y="187.46" class="st0" width="21.08" height="21.08"/>
<rect x="1529.33" y="104.26" class="st0" width="21.08" height="21.08"/>
<rect x="1487.73" y="104.26" class="st0" width="21.08" height="21.08"/>
<rect x="1446.13" y="104.26" class="st0" width="21.08" height="21.08"/>
<rect x="1529.33" y="62.85" class="st0" width="21.08" height="21.08"/>
<rect x="1529.33" y="21.07" class="st0" width="21.08" height="21.08"/>
<rect x="1529.33" y="146.05" class="st0" width="21.08" height="21.08"/>
<rect x="1591.82" y="124.97" class="st0" width="21.08" height="21.08"/>
<rect x="1612.52" y="104.26" class="st0" width="21.08" height="21.08"/>
<rect x="1591.82" y="166.75" class="st0" width="21.08" height="21.08"/>
<rect x="1612.52" y="146.05" class="st0" width="21.08" height="21.08"/>
<rect x="1570.93" y="104.26" class="st0" width="21.08" height="21.08"/>
<rect x="1571.11" y="145.86" class="st0" width="21.08" height="21.08"/>
<path class="st1" d="M1459.97,21.07c-7.54,0-13.65,6.11-13.65,13.65v35.56c0,7.54,6.11,13.65,13.65,13.65h35.37
	c7.54,0,13.65-6.11,13.65-13.65V34.72c0-7.54-6.11-13.65-13.65-13.65H1459.97z M1488.19,42.06h-21.07v21.08h21.07V42.06z"/>
<path class="st1" d="M1459.97,145.68c-7.54,0-13.65,6.11-13.65,13.65v35.56c0,7.54,6.11,13.65,13.65,13.65h35.37
	c7.54,0,13.65-6.11,13.65-13.65v-35.56c0-7.54-6.11-13.65-13.65-13.65H1459.97z M1488.19,167.03h-21.07v21.08h21.07V167.03z"/>
<path class="st1" d="M1584.58,21.07c-7.54,0-13.65,6.11-13.65,13.65v35.56c0,7.54,6.11,13.65,13.65,13.65h35.37
	c7.54,0,13.65-6.11,13.65-13.65V34.72c0-7.54-6.11-13.65-13.65-13.65H1584.58z M1612.94,42.06h-21.07v21.08h21.07V42.06z"/>
<path class="st0" d="M15.39,208.43h93.36c56.82,0,88.22-33.78,88.22-94.95c0-61.17-34.26-95.22-91.08-95.22H15.39V208.43z
	 M66.78,57.35h33.98c31.98,0,44.82,21.54,44.82,56.12s-12.85,55.85-44.82,55.85H66.78V57.35z"/>
<path class="st0" d="M309.48,212.68c64.24,0,101.07-42.02,101.07-99.47c0-57.18-36.83-99.21-101.07-99.21
	c-64.81,0-101.07,42.02-101.07,99.21C208.41,170.66,244.67,212.68,309.48,212.68z M309.48,173.58c-37.4,0-49.68-27.13-49.68-60.38
	c0-32.98,12.28-60.11,49.68-60.11c37.12,0,49.68,27.13,49.68,60.11C359.16,146.45,346.6,173.58,309.48,173.58z"/>
<path class="st0" d="M523.06,212.68c64.24,0,101.07-42.02,101.07-99.47C624.13,56.02,587.3,14,523.06,14
	c-64.81,0-101.07,42.02-101.07,99.21C421.99,170.66,458.25,212.68,523.06,212.68z M523.06,173.58c-37.4,0-49.68-27.13-49.68-60.38
	c0-32.98,12.28-60.11,49.68-60.11c37.12,0,49.68,27.13,49.68,60.11C572.74,146.45,560.18,173.58,523.06,173.58z"/>
<path class="st0" d="M643.84,208.43h51.39V142.2h31.98c43.68,0,25.12,58.25,35.12,66.23h53.39v-2.66
	c-11.71-3.19,6.85-76.87-44.25-85.11v-0.53c25.41-5.32,41.4-21.28,41.4-46.54c0-35.91-27.41-55.32-72.8-55.32h-96.22V208.43z
	 M695.23,57.35h34.83c20.56,0,31.41,6.92,31.41,22.87c0,15.96-10.85,22.87-31.41,22.87h-34.83V57.35z"/>
<path class="st0" d="M839.61,21v187.62h138.12v-38.57h-88.2V21H839.61z"/>
<path class="st0" d="M1151.72,92.19c-24.91-6.54-37.37-10.19-37.37-21.7c0-10.46,11.63-14.9,26.57-14.9
	c19.1,0,31.84,8.37,34.05,22.48h49.83c-1.38-37.9-37.65-60.91-83.88-60.91c-42.63,0-76.41,15.95-76.41,56.73
	c0,34.51,29.9,48.36,63.95,57.77c27.96,7.84,49.28,11.24,49.28,26.14c0,9.41-9.97,16.21-28.51,16.21
	c-22.15,0-40.42-7.32-40.42-27.19h-49.83c0,41.56,38.76,65.61,90.25,65.61c49.55,0,78.34-23.27,78.34-59.08
	C1227.57,113.37,1189.09,101.87,1151.72,92.19z"/>
<path class="st0" d="M1297.27,208.61h49.77V59.57h57.24V21h-164.53v38.57h57.51V208.61z"/>
<path class="st0" d="M993.98,21v187.62h48.75V21H993.98z"/>
</svg>
